<?xml version="1.0" encoding="UTF-8" standalone="no"?>
<!DOCTYPE svg PUBLIC "-//W3C//DTD SVG 1.1//EN"
 "http://www.w3.org/Graphics/SVG/1.1/DTD/svg11.dtd">
<!-- Generated by graphviz version 2.40.1 (20161225.0304)
 -->
<!-- Title: dependencies Pages: 1 -->
<svg width="1133pt" height="284pt"
 viewBox="0.00 0.00 1133.00 284.00" xmlns="http://www.w3.org/2000/svg" xmlns:xlink="http://www.w3.org/1999/xlink">
<g id="graph0" class="graph" transform="scale(1 1) rotate(0) translate(4 280)">
<title>dependencies</title>
<polygon fill="#ffffff" stroke="transparent" points="-4,4 -4,-280 1129,-280 1129,4 -4,4"/>
<text text-anchor="start" x="541.5091" y="-42.4" font-family="sans-serif" font-weight="bold" font-size="14.00" fill="#000000">Legend</text>
<polygon fill="#ffffb3" stroke="transparent" points="328.5,-10 328.5,-30 348.5,-30 348.5,-10 328.5,-10"/>
<text text-anchor="start" x="352.129" y="-15.4" font-family="sans-serif" font-size="14.00" fill="#000000"> &#160;Declarations</text>
<polygon fill="#8dd3c7" stroke="transparent" points="441.5,-10 441.5,-30 461.5,-30 461.5,-10 441.5,-10"/>
<text text-anchor="start" x="465.2251" y="-15.4" font-family="sans-serif" font-size="14.00" fill="#000000"> &#160;Module</text>
<polygon fill="#80b1d3" stroke="transparent" points="527.5,-10 527.5,-30 547.5,-30 547.5,-10 527.5,-10"/>
<text text-anchor="start" x="551.2812" y="-15.4" font-family="sans-serif" font-size="14.00" fill="#000000"> &#160;Bootstrap</text>
<polygon fill="#fdb462" stroke="transparent" points="624.5,-10 624.5,-30 644.5,-30 644.5,-10 624.5,-10"/>
<text text-anchor="start" x="648.1732" y="-15.4" font-family="sans-serif" font-size="14.00" fill="#000000"> &#160;Providers</text>
<polygon fill="#fb8072" stroke="transparent" points="720.5,-10 720.5,-30 740.5,-30 740.5,-10 720.5,-10"/>
<text text-anchor="start" x="744.2258" y="-15.4" font-family="sans-serif" font-size="14.00" fill="#000000"> &#160;Exports</text>
<g id="clust1" class="cluster">
<title>cluster_GameModule</title>
<polygon fill="none" stroke="#000000" stroke-dasharray="1,5" points="8,-70 8,-268 1117,-268 1117,-70 8,-70"/>
</g>
<g id="clust2" class="cluster">
<title>cluster_GameModule_declarations</title>
<polygon fill="none" stroke="#000000" points="979,-78 979,-130 1109,-130 1109,-78 979,-78"/>
</g>
<g id="clust4" class="cluster">
<title>cluster_GameModule_imports</title>
<polygon fill="none" stroke="#000000" points="222,-78 222,-130 971,-130 971,-78 222,-78"/>
</g>
<g id="clust5" class="cluster">
<title>cluster_GameModule_exports</title>
<polygon fill="none" stroke="#000000" points="518,-208 518,-260 652,-260 652,-208 518,-208"/>
</g>
<g id="clust7" class="cluster">
<title>cluster_GameModule_providers</title>
<polygon fill="none" stroke="#000000" points="16,-78 16,-130 214,-130 214,-78 16,-78"/>
</g>
<!-- GameComponent -->
<g id="node1" class="node">
<title>GameComponent</title>
<polygon fill="#ffffb3" stroke="#000000" points="1101.2591,-122 986.7409,-122 986.7409,-86 1101.2591,-86 1101.2591,-122"/>
<text text-anchor="middle" x="1044" y="-99.8" font-family="Times,serif" font-size="14.00" fill="#000000">GameComponent</text>
</g>
<!-- GameModule -->
<g id="node2" class="node">
<title>GameModule</title>
<polygon fill="#8dd3c7" stroke="#000000" points="631.4762,-187 628.4762,-191 607.4762,-191 604.4762,-187 538.5238,-187 538.5238,-151 631.4762,-151 631.4762,-187"/>
<text text-anchor="middle" x="585" y="-164.8" font-family="Times,serif" font-size="14.00" fill="#000000">GameModule</text>
</g>
<!-- GameComponent&#45;&gt;GameModule -->
<g id="edge1" class="edge">
<title>GameComponent&#45;&gt;GameModule</title>
<path fill="none" stroke="#000000" d="M1044,-122.2921C1044,-144.2057 1044,-178 1044,-178 1044,-178 641.5373,-178 641.5373,-178"/>
<polygon fill="#000000" stroke="#000000" points="641.5374,-174.5001 631.5373,-178 641.5373,-181.5001 641.5374,-174.5001"/>
</g>
<!-- GameComponent  -->
<g id="node8" class="node">
<title>GameComponent </title>
<polygon fill="#fb8072" stroke="#000000" points="644.2591,-252 525.7409,-252 525.7409,-216 644.2591,-216 644.2591,-252"/>
<text text-anchor="middle" x="585" y="-229.8" font-family="Times,serif" font-size="14.00" fill="#000000">GameComponent </text>
</g>
<!-- GameModule&#45;&gt;GameComponent  -->
<g id="edge7" class="edge">
<title>GameModule&#45;&gt;GameComponent </title>
<path fill="none" stroke="#000000" stroke-dasharray="5,2" d="M585,-187.1061C585,-187.1061 585,-205.991 585,-205.991"/>
<polygon fill="#000000" stroke="#000000" points="581.5001,-205.9909 585,-215.991 588.5001,-205.991 581.5001,-205.9909"/>
</g>
<!-- FinishedGameModule -->
<g id="node3" class="node">
<title>FinishedGameModule</title>
<polygon fill="#8dd3c7" stroke="#000000" points="962.6993,-122 959.6993,-126 938.6993,-126 935.6993,-122 821.3007,-122 821.3007,-86 962.6993,-86 962.6993,-122"/>
<text text-anchor="middle" x="892" y="-99.8" font-family="Times,serif" font-size="14.00" fill="#000000">FinishedGameModule</text>
</g>
<!-- FinishedGameModule&#45;&gt;GameModule -->
<g id="edge2" class="edge">
<title>FinishedGameModule&#45;&gt;GameModule</title>
<path fill="none" stroke="#000000" d="M892,-122.1061C892,-141.3391 892,-169 892,-169 892,-169 641.6267,-169 641.6267,-169"/>
<polygon fill="#000000" stroke="#000000" points="641.6267,-165.5001 631.6267,-169 641.6267,-172.5001 641.6267,-165.5001"/>
</g>
<!-- GameRoutingModule -->
<g id="node4" class="node">
<title>GameRoutingModule</title>
<polygon fill="#8dd3c7" stroke="#000000" points="803.094,-122 800.094,-126 779.094,-126 776.094,-122 664.906,-122 664.906,-86 803.094,-86 803.094,-122"/>
<text text-anchor="middle" x="734" y="-99.8" font-family="Times,serif" font-size="14.00" fill="#000000">GameRoutingModule</text>
</g>
<!-- GameRoutingModule&#45;&gt;GameModule -->
<g id="edge3" class="edge">
<title>GameRoutingModule&#45;&gt;GameModule</title>
<path fill="none" stroke="#000000" d="M734,-122.027C734,-138.3976 734,-160 734,-160 734,-160 641.7357,-160 641.7357,-160"/>
<polygon fill="#000000" stroke="#000000" points="641.7358,-156.5001 631.7357,-160 641.7357,-163.5001 641.7358,-156.5001"/>
</g>
<!-- ScoreboardModule -->
<g id="node5" class="node">
<title>ScoreboardModule</title>
<polygon fill="#8dd3c7" stroke="#000000" points="646.7978,-122 643.7978,-126 622.7978,-126 619.7978,-122 523.2022,-122 523.2022,-86 646.7978,-86 646.7978,-122"/>
<text text-anchor="middle" x="585" y="-99.8" font-family="Times,serif" font-size="14.00" fill="#000000">ScoreboardModule</text>
</g>
<!-- ScoreboardModule&#45;&gt;GameModule -->
<g id="edge4" class="edge">
<title>ScoreboardModule&#45;&gt;GameModule</title>
<path fill="none" stroke="#000000" d="M585,-122.1061C585,-122.1061 585,-140.991 585,-140.991"/>
<polygon fill="#000000" stroke="#000000" points="581.5001,-140.9909 585,-150.991 588.5001,-140.991 581.5001,-140.9909"/>
</g>
<!-- SearchHeroesModule -->
<g id="node6" class="node">
<title>SearchHeroesModule</title>
<polygon fill="#8dd3c7" stroke="#000000" points="505.7781,-122 502.7781,-126 481.7781,-126 478.7781,-122 368.2219,-122 368.2219,-86 505.7781,-86 505.7781,-122"/>
<text text-anchor="middle" x="437" y="-99.8" font-family="Times,serif" font-size="14.00" fill="#000000">SearchHeroesModule</text>
</g>
<!-- SearchHeroesModule&#45;&gt;GameModule -->
<g id="edge5" class="edge">
<title>SearchHeroesModule&#45;&gt;GameModule</title>
<path fill="none" stroke="#000000" d="M437,-122.027C437,-138.3976 437,-160 437,-160 437,-160 528.1719,-160 528.1719,-160"/>
<polygon fill="#000000" stroke="#000000" points="528.1719,-163.5001 538.1719,-160 528.1718,-156.5001 528.1719,-163.5001"/>
</g>
<!-- TicTacToeModule -->
<g id="node7" class="node">
<title>TicTacToeModule</title>
<polygon fill="#8dd3c7" stroke="#000000" points="350.4566,-122 347.4566,-126 326.4566,-126 323.4566,-122 229.5434,-122 229.5434,-86 350.4566,-86 350.4566,-122"/>
<text text-anchor="middle" x="290" y="-99.8" font-family="Times,serif" font-size="14.00" fill="#000000">TicTacToeModule</text>
</g>
<!-- TicTacToeModule&#45;&gt;GameModule -->
<g id="edge6" class="edge">
<title>TicTacToeModule&#45;&gt;GameModule</title>
<path fill="none" stroke="#000000" d="M290,-122.1061C290,-141.3391 290,-169 290,-169 290,-169 528.2564,-169 528.2564,-169"/>
<polygon fill="#000000" stroke="#000000" points="528.2564,-172.5001 538.2564,-169 528.2563,-165.5001 528.2564,-172.5001"/>
</g>
<!-- LocalStorageService -->
<g id="node9" class="node">
<title>LocalStorageService</title>
<ellipse fill="#fdb462" stroke="#000000" cx="115" cy="-104" rx="91.4481" ry="18"/>
<text text-anchor="middle" x="115" y="-99.8" font-family="Times,serif" font-size="14.00" fill="#000000">LocalStorageService</text>
</g>
<!-- LocalStorageService&#45;&gt;GameModule -->
<g id="edge8" class="edge">
<title>LocalStorageService&#45;&gt;GameModule</title>
<path fill="none" stroke="#000000" d="M115,-122.2921C115,-144.2057 115,-178 115,-178 115,-178 528.2163,-178 528.2163,-178"/>
<polygon fill="#000000" stroke="#000000" points="528.2163,-181.5001 538.2163,-178 528.2163,-174.5001 528.2163,-181.5001"/>
</g>
</g>
</svg>
