<?xml version="1.0" encoding="UTF-8" standalone="no"?>
<!DOCTYPE svg PUBLIC "-//W3C//DTD SVG 1.1//EN"
 "http://www.w3.org/Graphics/SVG/1.1/DTD/svg11.dtd">
<!-- Generated by graphviz version 2.40.1 (20161225.0304)
 -->
<!-- Title: dependencies Pages: 1 -->
<svg width="504pt" height="284pt"
 viewBox="0.00 0.00 504.00 284.00" xmlns="http://www.w3.org/2000/svg" xmlns:xlink="http://www.w3.org/1999/xlink">
<g id="graph0" class="graph" transform="scale(1 1) rotate(0) translate(4 280)">
<title>dependencies</title>
<polygon fill="#ffffff" stroke="transparent" points="-4,4 -4,-280 500,-280 500,4 -4,4"/>
<text text-anchor="start" x="227.0091" y="-42.4" font-family="sans-serif" font-weight="bold" font-size="14.00" fill="#000000">Legend</text>
<polygon fill="#ffffb3" stroke="transparent" points="14,-10 14,-30 34,-30 34,-10 14,-10"/>
<text text-anchor="start" x="37.629" y="-15.4" font-family="sans-serif" font-size="14.00" fill="#000000"> &#160;Declarations</text>
<polygon fill="#8dd3c7" stroke="transparent" points="127,-10 127,-30 147,-30 147,-10 127,-10"/>
<text text-anchor="start" x="150.7251" y="-15.4" font-family="sans-serif" font-size="14.00" fill="#000000"> &#160;Module</text>
<polygon fill="#80b1d3" stroke="transparent" points="213,-10 213,-30 233,-30 233,-10 213,-10"/>
<text text-anchor="start" x="236.7812" y="-15.4" font-family="sans-serif" font-size="14.00" fill="#000000"> &#160;Bootstrap</text>
<polygon fill="#fdb462" stroke="transparent" points="310,-10 310,-30 330,-30 330,-10 310,-10"/>
<text text-anchor="start" x="333.6732" y="-15.4" font-family="sans-serif" font-size="14.00" fill="#000000"> &#160;Providers</text>
<polygon fill="#fb8072" stroke="transparent" points="406,-10 406,-30 426,-30 426,-10 406,-10"/>
<text text-anchor="start" x="429.7258" y="-15.4" font-family="sans-serif" font-size="14.00" fill="#000000"> &#160;Exports</text>
<g id="clust1" class="cluster">
<title>cluster_SearchBarModule</title>
<polygon fill="none" stroke="#000000" stroke-dasharray="1,5" points="83,-70 83,-268 413,-268 413,-70 83,-70"/>
</g>
<g id="clust2" class="cluster">
<title>cluster_SearchBarModule_declarations</title>
<polygon fill="none" stroke="#000000" points="249,-78 249,-130 405,-130 405,-78 249,-78"/>
</g>
<g id="clust5" class="cluster">
<title>cluster_SearchBarModule_exports</title>
<polygon fill="none" stroke="#000000" points="168,-208 168,-260 328,-260 328,-208 168,-208"/>
</g>
<g id="clust7" class="cluster">
<title>cluster_SearchBarModule_providers</title>
<polygon fill="none" stroke="#000000" points="91,-78 91,-130 241,-130 241,-78 91,-78"/>
</g>
<!-- SearchBarComponent -->
<g id="node1" class="node">
<title>SearchBarComponent</title>
<polygon fill="#ffffb3" stroke="#000000" points="396.6317,-122 257.3683,-122 257.3683,-86 396.6317,-86 396.6317,-122"/>
<text text-anchor="middle" x="327" y="-99.8" font-family="Times,serif" font-size="14.00" fill="#000000">SearchBarComponent</text>
</g>
<!-- SearchBarModule -->
<g id="node2" class="node">
<title>SearchBarModule</title>
<polygon fill="#8dd3c7" stroke="#000000" points="306.8487,-187 303.8487,-191 282.8487,-191 279.8487,-187 189.1513,-187 189.1513,-151 306.8487,-151 306.8487,-187"/>
<text text-anchor="middle" x="248" y="-164.8" font-family="Times,serif" font-size="14.00" fill="#000000">SearchBarModule</text>
</g>
<!-- SearchBarComponent&#45;&gt;SearchBarModule -->
<g id="edge1" class="edge">
<title>SearchBarComponent&#45;&gt;SearchBarModule</title>
<path fill="none" stroke="#000000" d="M282.0544,-122.1061C282.0544,-122.1061 282.0544,-140.991 282.0544,-140.991"/>
<polygon fill="#000000" stroke="#000000" points="278.5544,-140.9909 282.0544,-150.991 285.5544,-140.991 278.5544,-140.9909"/>
</g>
<!-- SearchBarComponent  -->
<g id="node3" class="node">
<title>SearchBarComponent </title>
<polygon fill="#fb8072" stroke="#000000" points="319.6313,-252 176.3687,-252 176.3687,-216 319.6313,-216 319.6313,-252"/>
<text text-anchor="middle" x="248" y="-229.8" font-family="Times,serif" font-size="14.00" fill="#000000">SearchBarComponent </text>
</g>
<!-- SearchBarModule&#45;&gt;SearchBarComponent  -->
<g id="edge2" class="edge">
<title>SearchBarModule&#45;&gt;SearchBarComponent </title>
<path fill="none" stroke="#000000" stroke-dasharray="5,2" d="M248,-187.1061C248,-187.1061 248,-205.991 248,-205.991"/>
<polygon fill="#000000" stroke="#000000" points="244.5001,-205.9909 248,-215.991 251.5001,-205.991 244.5001,-205.9909"/>
</g>
<!-- HeroesService -->
<g id="node4" class="node">
<title>HeroesService</title>
<ellipse fill="#fdb462" stroke="#000000" cx="166" cy="-104" rx="67.1715" ry="18"/>
<text text-anchor="middle" x="166" y="-99.8" font-family="Times,serif" font-size="14.00" fill="#000000">HeroesService</text>
</g>
<!-- HeroesService&#45;&gt;SearchBarModule -->
<g id="edge3" class="edge">
<title>HeroesService&#45;&gt;SearchBarModule</title>
<path fill="none" stroke="#000000" d="M211.2056,-117.468C211.2056,-117.468 211.2056,-140.8642 211.2056,-140.8642"/>
<polygon fill="#000000" stroke="#000000" points="207.7057,-140.8641 211.2056,-150.8642 214.7057,-140.8642 207.7057,-140.8641"/>
</g>
</g>
</svg>
