<?xml version="1.0" encoding="UTF-8" standalone="no"?>
<!DOCTYPE svg PUBLIC "-//W3C//DTD SVG 1.1//EN"
 "http://www.w3.org/Graphics/SVG/1.1/DTD/svg11.dtd">
<!-- Generated by graphviz version 2.40.1 (20161225.0304)
 -->
<!-- Title: dependencies Pages: 1 -->
<svg width="550pt" height="284pt"
 viewBox="0.00 0.00 550.00 284.00" xmlns="http://www.w3.org/2000/svg" xmlns:xlink="http://www.w3.org/1999/xlink">
<g id="graph0" class="graph" transform="scale(1 1) rotate(0) translate(4 280)">
<title>dependencies</title>
<polygon fill="#ffffff" stroke="transparent" points="-4,4 -4,-280 546,-280 546,4 -4,4"/>
<text text-anchor="start" x="250.0091" y="-42.4" font-family="sans-serif" font-weight="bold" font-size="14.00" fill="#000000">Legend</text>
<polygon fill="#ffffb3" stroke="transparent" points="37,-10 37,-30 57,-30 57,-10 37,-10"/>
<text text-anchor="start" x="60.629" y="-15.4" font-family="sans-serif" font-size="14.00" fill="#000000"> &#160;Declarations</text>
<polygon fill="#8dd3c7" stroke="transparent" points="150,-10 150,-30 170,-30 170,-10 150,-10"/>
<text text-anchor="start" x="173.7251" y="-15.4" font-family="sans-serif" font-size="14.00" fill="#000000"> &#160;Module</text>
<polygon fill="#80b1d3" stroke="transparent" points="236,-10 236,-30 256,-30 256,-10 236,-10"/>
<text text-anchor="start" x="259.7812" y="-15.4" font-family="sans-serif" font-size="14.00" fill="#000000"> &#160;Bootstrap</text>
<polygon fill="#fdb462" stroke="transparent" points="333,-10 333,-30 353,-30 353,-10 333,-10"/>
<text text-anchor="start" x="356.6732" y="-15.4" font-family="sans-serif" font-size="14.00" fill="#000000"> &#160;Providers</text>
<polygon fill="#fb8072" stroke="transparent" points="429,-10 429,-30 449,-30 449,-10 429,-10"/>
<text text-anchor="start" x="452.7258" y="-15.4" font-family="sans-serif" font-size="14.00" fill="#000000"> &#160;Exports</text>
<g id="clust1" class="cluster">
<title>cluster_HomeModule</title>
<polygon fill="none" stroke="#000000" stroke-dasharray="1,5" points="8,-70 8,-268 534,-268 534,-70 8,-70"/>
</g>
<g id="clust2" class="cluster">
<title>cluster_HomeModule_declarations</title>
<polygon fill="none" stroke="#000000" points="394,-78 394,-130 526,-130 526,-78 394,-78"/>
</g>
<g id="clust4" class="cluster">
<title>cluster_HomeModule_imports</title>
<polygon fill="none" stroke="#000000" points="16,-78 16,-130 386,-130 386,-78 16,-78"/>
</g>
<g id="clust5" class="cluster">
<title>cluster_HomeModule_exports</title>
<polygon fill="none" stroke="#000000" points="210,-208 210,-260 346,-260 346,-208 210,-208"/>
</g>
<!-- HomeComponent -->
<g id="node1" class="node">
<title>HomeComponent</title>
<polygon fill="#ffffb3" stroke="#000000" points="517.5451,-122 402.4549,-122 402.4549,-86 517.5451,-86 517.5451,-122"/>
<text text-anchor="middle" x="460" y="-99.8" font-family="Times,serif" font-size="14.00" fill="#000000">HomeComponent</text>
</g>
<!-- HomeModule -->
<g id="node2" class="node">
<title>HomeModule</title>
<polygon fill="#8dd3c7" stroke="#000000" points="324.7619,-187 321.7619,-191 300.7619,-191 297.7619,-187 231.2381,-187 231.2381,-151 324.7619,-151 324.7619,-187"/>
<text text-anchor="middle" x="278" y="-164.8" font-family="Times,serif" font-size="14.00" fill="#000000">HomeModule</text>
</g>
<!-- HomeComponent&#45;&gt;HomeModule -->
<g id="edge1" class="edge">
<title>HomeComponent&#45;&gt;HomeModule</title>
<path fill="none" stroke="#000000" d="M460,-122.1061C460,-141.3391 460,-169 460,-169 460,-169 334.8695,-169 334.8695,-169"/>
<polygon fill="#000000" stroke="#000000" points="334.8696,-165.5001 324.8695,-169 334.8695,-172.5001 334.8696,-165.5001"/>
</g>
<!-- HomeComponent  -->
<g id="node6" class="node">
<title>HomeComponent </title>
<polygon fill="#fb8072" stroke="#000000" points="337.5442,-252 218.4558,-252 218.4558,-216 337.5442,-216 337.5442,-252"/>
<text text-anchor="middle" x="278" y="-229.8" font-family="Times,serif" font-size="14.00" fill="#000000">HomeComponent </text>
</g>
<!-- HomeModule&#45;&gt;HomeComponent  -->
<g id="edge5" class="edge">
<title>HomeModule&#45;&gt;HomeComponent </title>
<path fill="none" stroke="#000000" stroke-dasharray="5,2" d="M278,-187.1061C278,-187.1061 278,-205.991 278,-205.991"/>
<polygon fill="#000000" stroke="#000000" points="274.5001,-205.9909 278,-215.991 281.5001,-205.991 274.5001,-205.9909"/>
</g>
<!-- GameModule -->
<g id="node3" class="node">
<title>GameModule</title>
<polygon fill="#8dd3c7" stroke="#000000" points="378.4762,-122 375.4762,-126 354.4762,-126 351.4762,-122 285.5238,-122 285.5238,-86 378.4762,-86 378.4762,-122"/>
<text text-anchor="middle" x="332" y="-99.8" font-family="Times,serif" font-size="14.00" fill="#000000">GameModule</text>
</g>
<!-- GameModule&#45;&gt;HomeModule -->
<g id="edge2" class="edge">
<title>GameModule&#45;&gt;HomeModule</title>
<path fill="none" stroke="#000000" d="M305.1964,-122.1061C305.1964,-122.1061 305.1964,-140.991 305.1964,-140.991"/>
<polygon fill="#000000" stroke="#000000" points="301.6964,-140.9909 305.1964,-150.991 308.6964,-140.991 301.6964,-140.9909"/>
</g>
<!-- HelpModule -->
<g id="node4" class="node">
<title>HelpModule</title>
<polygon fill="#8dd3c7" stroke="#000000" points="267.2619,-122 264.2619,-126 243.2619,-126 240.2619,-122 180.7381,-122 180.7381,-86 267.2619,-86 267.2619,-122"/>
<text text-anchor="middle" x="224" y="-99.8" font-family="Times,serif" font-size="14.00" fill="#000000">HelpModule</text>
</g>
<!-- HelpModule&#45;&gt;HomeModule -->
<g id="edge3" class="edge">
<title>HelpModule&#45;&gt;HomeModule</title>
<path fill="none" stroke="#000000" d="M249.25,-122.1061C249.25,-122.1061 249.25,-140.991 249.25,-140.991"/>
<polygon fill="#000000" stroke="#000000" points="245.7501,-140.9909 249.25,-150.991 252.7501,-140.991 245.7501,-140.9909"/>
</g>
<!-- HomeRoutingModule -->
<g id="node5" class="node">
<title>HomeRoutingModule</title>
<polygon fill="#8dd3c7" stroke="#000000" points="162.3795,-122 159.3795,-126 138.3795,-126 135.3795,-122 23.6205,-122 23.6205,-86 162.3795,-86 162.3795,-122"/>
<text text-anchor="middle" x="93" y="-99.8" font-family="Times,serif" font-size="14.00" fill="#000000">HomeRoutingModule</text>
</g>
<!-- HomeRoutingModule&#45;&gt;HomeModule -->
<g id="edge4" class="edge">
<title>HomeRoutingModule&#45;&gt;HomeModule</title>
<path fill="none" stroke="#000000" d="M93,-122.1061C93,-141.3391 93,-169 93,-169 93,-169 220.838,-169 220.838,-169"/>
<polygon fill="#000000" stroke="#000000" points="220.8381,-172.5001 230.838,-169 220.838,-165.5001 220.8381,-172.5001"/>
</g>
</g>
</svg>
