<?xml version="1.0" encoding="UTF-8" standalone="no"?>
<!DOCTYPE svg PUBLIC "-//W3C//DTD SVG 1.1//EN"
 "http://www.w3.org/Graphics/SVG/1.1/DTD/svg11.dtd">
<!-- Generated by graphviz version 2.40.1 (20161225.0304)
 -->
<!-- Title: dependencies Pages: 1 -->
<svg width="640pt" height="284pt"
 viewBox="0.00 0.00 640.00 284.00" xmlns="http://www.w3.org/2000/svg" xmlns:xlink="http://www.w3.org/1999/xlink">
<g id="graph0" class="graph" transform="scale(1 1) rotate(0) translate(4 280)">
<title>dependencies</title>
<polygon fill="#ffffff" stroke="transparent" points="-4,4 -4,-280 636,-280 636,4 -4,4"/>
<text text-anchor="start" x="295.0091" y="-42.4" font-family="sans-serif" font-weight="bold" font-size="14.00" fill="#000000">Legend</text>
<polygon fill="#ffffb3" stroke="transparent" points="82,-10 82,-30 102,-30 102,-10 82,-10"/>
<text text-anchor="start" x="105.629" y="-15.4" font-family="sans-serif" font-size="14.00" fill="#000000"> &#160;Declarations</text>
<polygon fill="#8dd3c7" stroke="transparent" points="195,-10 195,-30 215,-30 215,-10 195,-10"/>
<text text-anchor="start" x="218.7251" y="-15.4" font-family="sans-serif" font-size="14.00" fill="#000000"> &#160;Module</text>
<polygon fill="#80b1d3" stroke="transparent" points="281,-10 281,-30 301,-30 301,-10 281,-10"/>
<text text-anchor="start" x="304.7812" y="-15.4" font-family="sans-serif" font-size="14.00" fill="#000000"> &#160;Bootstrap</text>
<polygon fill="#fdb462" stroke="transparent" points="378,-10 378,-30 398,-30 398,-10 378,-10"/>
<text text-anchor="start" x="401.6732" y="-15.4" font-family="sans-serif" font-size="14.00" fill="#000000"> &#160;Providers</text>
<polygon fill="#fb8072" stroke="transparent" points="474,-10 474,-30 494,-30 494,-10 474,-10"/>
<text text-anchor="start" x="497.7258" y="-15.4" font-family="sans-serif" font-size="14.00" fill="#000000"> &#160;Exports</text>
<g id="clust1" class="cluster">
<title>cluster_SearchHeroesModule</title>
<polygon fill="none" stroke="#000000" stroke-dasharray="1,5" points="8,-70 8,-268 624,-268 624,-70 8,-70"/>
</g>
<g id="clust2" class="cluster">
<title>cluster_SearchHeroesModule_declarations</title>
<polygon fill="none" stroke="#000000" points="302,-78 302,-130 616,-130 616,-78 302,-78"/>
</g>
<g id="clust5" class="cluster">
<title>cluster_SearchHeroesModule_imports</title>
<polygon fill="none" stroke="#000000" points="16,-78 16,-130 294,-130 294,-78 16,-78"/>
</g>
<g id="clust6" class="cluster">
<title>cluster_SearchHeroesModule_exports</title>
<polygon fill="none" stroke="#000000" points="217,-208 217,-260 395,-260 395,-208 217,-208"/>
</g>
<!-- LoaderComponent -->
<g id="node1" class="node">
<title>LoaderComponent</title>
<polygon fill="#ffffb3" stroke="#000000" points="608.4748,-122 487.5252,-122 487.5252,-86 608.4748,-86 608.4748,-122"/>
<text text-anchor="middle" x="548" y="-99.8" font-family="Times,serif" font-size="14.00" fill="#000000">LoaderComponent</text>
</g>
<!-- SearchHeroesModule -->
<g id="node3" class="node">
<title>SearchHeroesModule</title>
<polygon fill="#8dd3c7" stroke="#000000" points="374.7781,-187 371.7781,-191 350.7781,-191 347.7781,-187 237.2219,-187 237.2219,-151 374.7781,-151 374.7781,-187"/>
<text text-anchor="middle" x="306" y="-164.8" font-family="Times,serif" font-size="14.00" fill="#000000">SearchHeroesModule</text>
</g>
<!-- LoaderComponent&#45;&gt;SearchHeroesModule -->
<g id="edge1" class="edge">
<title>LoaderComponent&#45;&gt;SearchHeroesModule</title>
<path fill="none" stroke="#000000" d="M548,-122.1061C548,-141.3391 548,-169 548,-169 548,-169 384.7002,-169 384.7002,-169"/>
<polygon fill="#000000" stroke="#000000" points="384.7002,-165.5001 374.7002,-169 384.7001,-172.5001 384.7002,-165.5001"/>
</g>
<!-- SearchHeroesComponent -->
<g id="node2" class="node">
<title>SearchHeroesComponent</title>
<polygon fill="#ffffb3" stroke="#000000" points="469.5604,-122 310.4396,-122 310.4396,-86 469.5604,-86 469.5604,-122"/>
<text text-anchor="middle" x="390" y="-99.8" font-family="Times,serif" font-size="14.00" fill="#000000">SearchHeroesComponent</text>
</g>
<!-- SearchHeroesComponent&#45;&gt;SearchHeroesModule -->
<g id="edge2" class="edge">
<title>SearchHeroesComponent&#45;&gt;SearchHeroesModule</title>
<path fill="none" stroke="#000000" d="M342.5544,-122.1061C342.5544,-122.1061 342.5544,-140.991 342.5544,-140.991"/>
<polygon fill="#000000" stroke="#000000" points="339.0544,-140.9909 342.5544,-150.991 346.0544,-140.991 339.0544,-140.9909"/>
</g>
<!-- SearchHeroesComponent  -->
<g id="node6" class="node">
<title>SearchHeroesComponent </title>
<polygon fill="#fb8072" stroke="#000000" points="387.061,-252 224.939,-252 224.939,-216 387.061,-216 387.061,-252"/>
<text text-anchor="middle" x="306" y="-229.8" font-family="Times,serif" font-size="14.00" fill="#000000">SearchHeroesComponent </text>
</g>
<!-- SearchHeroesModule&#45;&gt;SearchHeroesComponent  -->
<g id="edge5" class="edge">
<title>SearchHeroesModule&#45;&gt;SearchHeroesComponent </title>
<path fill="none" stroke="#000000" stroke-dasharray="5,2" d="M306,-187.1061C306,-187.1061 306,-205.991 306,-205.991"/>
<polygon fill="#000000" stroke="#000000" points="302.5001,-205.9909 306,-215.991 309.5001,-205.991 302.5001,-205.9909"/>
</g>
<!-- CardHeroesModule -->
<g id="node4" class="node">
<title>CardHeroesModule</title>
<polygon fill="#8dd3c7" stroke="#000000" points="286.4032,-122 283.4032,-126 262.4032,-126 259.4032,-122 159.5968,-122 159.5968,-86 286.4032,-86 286.4032,-122"/>
<text text-anchor="middle" x="223" y="-99.8" font-family="Times,serif" font-size="14.00" fill="#000000">CardHeroesModule</text>
</g>
<!-- CardHeroesModule&#45;&gt;SearchHeroesModule -->
<g id="edge3" class="edge">
<title>CardHeroesModule&#45;&gt;SearchHeroesModule</title>
<path fill="none" stroke="#000000" d="M261.7812,-122.1061C261.7812,-122.1061 261.7812,-140.991 261.7812,-140.991"/>
<polygon fill="#000000" stroke="#000000" points="258.2813,-140.9909 261.7812,-150.991 265.2813,-140.991 258.2813,-140.9909"/>
</g>
<!-- SearchBarModule -->
<g id="node5" class="node">
<title>SearchBarModule</title>
<polygon fill="#8dd3c7" stroke="#000000" points="141.8487,-122 138.8487,-126 117.8487,-126 114.8487,-122 24.1513,-122 24.1513,-86 141.8487,-86 141.8487,-122"/>
<text text-anchor="middle" x="83" y="-99.8" font-family="Times,serif" font-size="14.00" fill="#000000">SearchBarModule</text>
</g>
<!-- SearchBarModule&#45;&gt;SearchHeroesModule -->
<g id="edge4" class="edge">
<title>SearchBarModule&#45;&gt;SearchHeroesModule</title>
<path fill="none" stroke="#000000" d="M83,-122.1061C83,-141.3391 83,-169 83,-169 83,-169 227.273,-169 227.273,-169"/>
<polygon fill="#000000" stroke="#000000" points="227.2731,-172.5001 237.273,-169 227.273,-165.5001 227.2731,-172.5001"/>
</g>
</g>
</svg>
