<?xml version="1.0" encoding="UTF-8" standalone="no"?>
<!DOCTYPE svg PUBLIC "-//W3C//DTD SVG 1.1//EN"
 "http://www.w3.org/Graphics/SVG/1.1/DTD/svg11.dtd">
<!-- Generated by graphviz version 2.40.1 (20161225.0304)
 -->
<!-- Title: dependencies Pages: 1 -->
<svg width="2850pt" height="510pt"
 viewBox="0.00 0.00 2850.00 510.00" xmlns="http://www.w3.org/2000/svg" xmlns:xlink="http://www.w3.org/1999/xlink">
<g id="graph0" class="graph" transform="scale(1 1) rotate(0) translate(4 506)">
<title>dependencies</title>
<polygon fill="#ffffff" stroke="transparent" points="-4,4 -4,-506 2846,-506 2846,4 -4,4"/>
<text text-anchor="start" x="1400.0091" y="-42.4" font-family="sans-serif" font-weight="bold" font-size="14.00" fill="#000000">Legend</text>
<polygon fill="#ffffb3" stroke="transparent" points="1187,-10 1187,-30 1207,-30 1207,-10 1187,-10"/>
<text text-anchor="start" x="1210.629" y="-15.4" font-family="sans-serif" font-size="14.00" fill="#000000"> &#160;Declarations</text>
<polygon fill="#8dd3c7" stroke="transparent" points="1300,-10 1300,-30 1320,-30 1320,-10 1300,-10"/>
<text text-anchor="start" x="1323.7251" y="-15.4" font-family="sans-serif" font-size="14.00" fill="#000000"> &#160;Module</text>
<polygon fill="#80b1d3" stroke="transparent" points="1386,-10 1386,-30 1406,-30 1406,-10 1386,-10"/>
<text text-anchor="start" x="1409.7812" y="-15.4" font-family="sans-serif" font-size="14.00" fill="#000000"> &#160;Bootstrap</text>
<polygon fill="#fdb462" stroke="transparent" points="1483,-10 1483,-30 1503,-30 1503,-10 1483,-10"/>
<text text-anchor="start" x="1506.6732" y="-15.4" font-family="sans-serif" font-size="14.00" fill="#000000"> &#160;Providers</text>
<polygon fill="#fb8072" stroke="transparent" points="1579,-10 1579,-30 1599,-30 1599,-10 1579,-10"/>
<text text-anchor="start" x="1602.7258" y="-15.4" font-family="sans-serif" font-size="14.00" fill="#000000"> &#160;Exports</text>
<g id="clust1" class="cluster">
<title>cluster_AppModule</title>
<polygon fill="none" stroke="#000000" stroke-dasharray="1,5" points="118,-70 118,-282 408,-282 408,-70 118,-70"/>
</g>
<g id="clust2" class="cluster">
<title>cluster_AppModule_declarations</title>
<polygon fill="none" stroke="#000000" points="278,-78 278,-130 400,-130 400,-78 278,-78"/>
</g>
<g id="clust4" class="cluster">
<title>cluster_AppModule_imports</title>
<polygon fill="none" stroke="#000000" points="126,-78 126,-130 270,-130 270,-78 126,-78"/>
</g>
<g id="clust6" class="cluster">
<title>cluster_AppModule_bootstrap</title>
<polygon fill="none" stroke="#000000" points="206,-222 206,-274 330,-274 330,-222 206,-222"/>
</g>
<g id="clust14" class="cluster">
<title>cluster_CardHeroesModule</title>
<polygon fill="none" stroke="#000000" stroke-dasharray="1,5" points="526,-70 526,-282 710,-282 710,-70 526,-70"/>
</g>
<g id="clust15" class="cluster">
<title>cluster_CardHeroesModule_declarations</title>
<polygon fill="none" stroke="#000000" points="537,-78 537,-130 701,-130 701,-78 537,-78"/>
</g>
<g id="clust18" class="cluster">
<title>cluster_CardHeroesModule_exports</title>
<polygon fill="none" stroke="#000000" points="534,-222 534,-274 702,-274 702,-222 534,-222"/>
</g>
<g id="clust21" class="cluster">
<title>cluster_FinishedGameModule</title>
<polygon fill="none" stroke="#000000" stroke-dasharray="1,5" points="2298,-138 2298,-358 2496,-358 2496,-138 2298,-138"/>
</g>
<g id="clust22" class="cluster">
<title>cluster_FinishedGameModule_declarations</title>
<polygon fill="none" stroke="#000000" points="2307,-146 2307,-198 2485,-198 2485,-146 2307,-146"/>
</g>
<g id="clust25" class="cluster">
<title>cluster_FinishedGameModule_exports</title>
<polygon fill="none" stroke="#000000" points="2306,-298 2306,-350 2488,-350 2488,-298 2306,-298"/>
</g>
<g id="clust28" class="cluster">
<title>cluster_GameModule</title>
<polygon fill="none" stroke="#000000" stroke-dasharray="1,5" points="718,-214 718,-426 1668,-426 1668,-214 718,-214"/>
</g>
<g id="clust29" class="cluster">
<title>cluster_GameModule_declarations</title>
<polygon fill="none" stroke="#000000" points="1530,-222 1530,-274 1660,-274 1660,-222 1530,-222"/>
</g>
<g id="clust31" class="cluster">
<title>cluster_GameModule_imports</title>
<polygon fill="none" stroke="#000000" points="726,-222 726,-274 1316,-274 1316,-222 726,-222"/>
</g>
<g id="clust32" class="cluster">
<title>cluster_GameModule_exports</title>
<polygon fill="none" stroke="#000000" points="1264,-366 1264,-418 1398,-418 1398,-366 1264,-366"/>
</g>
<g id="clust34" class="cluster">
<title>cluster_GameModule_providers</title>
<polygon fill="none" stroke="#000000" points="1324,-222 1324,-274 1522,-274 1522,-222 1324,-222"/>
</g>
<g id="clust41" class="cluster">
<title>cluster_HelpModule</title>
<polygon fill="none" stroke="#000000" stroke-dasharray="1,5" points="1994,-214 1994,-426 2290,-426 2290,-214 1994,-214"/>
</g>
<g id="clust42" class="cluster">
<title>cluster_HelpModule_declarations</title>
<polygon fill="none" stroke="#000000" points="2158,-222 2158,-274 2282,-274 2282,-222 2158,-222"/>
</g>
<g id="clust44" class="cluster">
<title>cluster_HelpModule_imports</title>
<polygon fill="none" stroke="#000000" points="2002,-222 2002,-274 2150,-274 2150,-222 2002,-222"/>
</g>
<g id="clust45" class="cluster">
<title>cluster_HelpModule_exports</title>
<polygon fill="none" stroke="#000000" points="2012,-366 2012,-418 2140,-418 2140,-366 2012,-366"/>
</g>
<g id="clust54" class="cluster">
<title>cluster_HomeModule</title>
<polygon fill="none" stroke="#000000" stroke-dasharray="1,5" points="1676,-290 1676,-494 1986,-494 1986,-290 1676,-290"/>
</g>
<g id="clust55" class="cluster">
<title>cluster_HomeModule_declarations</title>
<polygon fill="none" stroke="#000000" points="1846,-298 1846,-350 1978,-350 1978,-298 1846,-298"/>
</g>
<g id="clust57" class="cluster">
<title>cluster_HomeModule_imports</title>
<polygon fill="none" stroke="#000000" points="1684,-298 1684,-350 1838,-350 1838,-298 1684,-298"/>
</g>
<g id="clust58" class="cluster">
<title>cluster_HomeModule_exports</title>
<polygon fill="none" stroke="#000000" points="1767,-434 1767,-486 1903,-486 1903,-434 1767,-434"/>
</g>
<g id="clust67" class="cluster">
<title>cluster_ScoreboardModule</title>
<polygon fill="none" stroke="#000000" stroke-dasharray="1,5" points="8,-290 8,-358 358,-358 358,-290 8,-290"/>
</g>
<g id="clust68" class="cluster">
<title>cluster_ScoreboardModule_declarations</title>
<polygon fill="none" stroke="#000000" points="188,-298 188,-350 350,-350 350,-298 188,-298"/>
</g>
<g id="clust71" class="cluster">
<title>cluster_ScoreboardModule_exports</title>
<polygon fill="none" stroke="#000000" points="16,-298 16,-350 180,-350 180,-298 16,-298"/>
</g>
<g id="clust74" class="cluster">
<title>cluster_SearchBarModule</title>
<polygon fill="none" stroke="#000000" stroke-dasharray="1,5" points="2504,-70 2504,-282 2834,-282 2834,-70 2504,-70"/>
</g>
<g id="clust75" class="cluster">
<title>cluster_SearchBarModule_declarations</title>
<polygon fill="none" stroke="#000000" points="2670,-78 2670,-130 2826,-130 2826,-78 2670,-78"/>
</g>
<g id="clust78" class="cluster">
<title>cluster_SearchBarModule_exports</title>
<polygon fill="none" stroke="#000000" points="2512,-222 2512,-274 2672,-274 2672,-222 2512,-222"/>
</g>
<g id="clust80" class="cluster">
<title>cluster_SearchBarModule_providers</title>
<polygon fill="none" stroke="#000000" points="2512,-78 2512,-130 2662,-130 2662,-78 2512,-78"/>
</g>
<g id="clust81" class="cluster">
<title>cluster_SearchHeroesModule</title>
<polygon fill="none" stroke="#000000" stroke-dasharray="1,5" points="801,-138 801,-206 1317,-206 1317,-138 801,-138"/>
</g>
<g id="clust82" class="cluster">
<title>cluster_SearchHeroesModule_declarations</title>
<polygon fill="none" stroke="#000000" points="995,-146 995,-198 1309,-198 1309,-146 995,-146"/>
</g>
<g id="clust86" class="cluster">
<title>cluster_SearchHeroesModule_exports</title>
<polygon fill="none" stroke="#000000" points="809,-146 809,-198 987,-198 987,-146 809,-146"/>
</g>
<g id="clust89" class="cluster">
<title>cluster_TicTacToeModule</title>
<polygon fill="none" stroke="#000000" stroke-dasharray="1,5" points="366,-290 366,-358 710,-358 710,-290 366,-290"/>
</g>
<g id="clust90" class="cluster">
<title>cluster_TicTacToeModule_declarations</title>
<polygon fill="none" stroke="#000000" points="544,-298 544,-350 702,-350 702,-298 544,-298"/>
</g>
<g id="clust93" class="cluster">
<title>cluster_TicTacToeModule_exports</title>
<polygon fill="none" stroke="#000000" points="374,-298 374,-350 536,-350 536,-298 374,-298"/>
</g>
<!-- AppComponent -->
<g id="node1" class="node">
<title>AppComponent</title>
<polygon fill="#ffffb3" stroke="#000000" points="391.9399,-122 286.0601,-122 286.0601,-86 391.9399,-86 391.9399,-122"/>
<text text-anchor="middle" x="339" y="-99.8" font-family="Times,serif" font-size="14.00" fill="#000000">AppComponent</text>
</g>
<!-- AppModule -->
<g id="node2" class="node">
<title>AppModule</title>
<polygon fill="#8dd3c7" stroke="#000000" points="309.6571,-190 306.6571,-194 285.6571,-194 282.6571,-190 226.3429,-190 226.3429,-154 309.6571,-154 309.6571,-190"/>
<text text-anchor="middle" x="268" y="-167.8" font-family="Times,serif" font-size="14.00" fill="#000000">AppModule</text>
</g>
<!-- AppComponent&#45;&gt;AppModule -->
<g id="edge1" class="edge">
<title>AppComponent&#45;&gt;AppModule</title>
<path fill="none" stroke="#000000" d="M298.0544,-122.2228C298.0544,-122.2228 298.0544,-143.7269 298.0544,-143.7269"/>
<polygon fill="#000000" stroke="#000000" points="294.5544,-143.7269 298.0544,-153.7269 301.5544,-143.727 294.5544,-143.7269"/>
</g>
<!-- AppComponent  -->
<g id="node4" class="node">
<title>AppComponent </title>
<polygon fill="#80b1d3" stroke="#000000" points="322.439,-266 213.561,-266 213.561,-230 322.439,-230 322.439,-266"/>
<text text-anchor="middle" x="268" y="-243.8" font-family="Times,serif" font-size="14.00" fill="#000000">AppComponent </text>
</g>
<!-- AppModule&#45;&gt;AppComponent  -->
<g id="edge3" class="edge">
<title>AppModule&#45;&gt;AppComponent </title>
<path fill="none" stroke="#000000" stroke-dasharray="1,5" d="M268,-190.0109C268,-190.0109 268,-219.855 268,-219.855"/>
<polygon fill="#000000" stroke="#000000" points="264.5001,-219.8549 268,-229.855 271.5001,-219.855 264.5001,-219.8549"/>
</g>
<!-- AppRoutingModule -->
<g id="node3" class="node">
<title>AppRoutingModule</title>
<polygon fill="#8dd3c7" stroke="#000000" points="262.2744,-122 259.2744,-126 238.2744,-126 235.2744,-122 133.7256,-122 133.7256,-86 262.2744,-86 262.2744,-122"/>
<text text-anchor="middle" x="198" y="-99.8" font-family="Times,serif" font-size="14.00" fill="#000000">AppRoutingModule</text>
</g>
<!-- AppRoutingModule&#45;&gt;AppModule -->
<g id="edge2" class="edge">
<title>AppRoutingModule&#45;&gt;AppModule</title>
<path fill="none" stroke="#000000" d="M244.2795,-122.2228C244.2795,-122.2228 244.2795,-143.7269 244.2795,-143.7269"/>
<polygon fill="#000000" stroke="#000000" points="240.7795,-143.7269 244.2795,-153.7269 247.7795,-143.727 240.7795,-143.7269"/>
</g>
<!-- CardHeroesComponent -->
<g id="node5" class="node">
<title>CardHeroesComponent</title>
<polygon fill="#ffffb3" stroke="#000000" points="693.1853,-122 544.8147,-122 544.8147,-86 693.1853,-86 693.1853,-122"/>
<text text-anchor="middle" x="619" y="-99.8" font-family="Times,serif" font-size="14.00" fill="#000000">CardHeroesComponent</text>
</g>
<!-- CardHeroesModule -->
<g id="node6" class="node">
<title>CardHeroesModule</title>
<polygon fill="#8dd3c7" stroke="#000000" points="682.4032,-190 679.4032,-194 658.4032,-194 655.4032,-190 555.5968,-190 555.5968,-154 682.4032,-154 682.4032,-190"/>
<text text-anchor="middle" x="619" y="-167.8" font-family="Times,serif" font-size="14.00" fill="#000000">CardHeroesModule</text>
</g>
<!-- CardHeroesComponent&#45;&gt;CardHeroesModule -->
<g id="edge4" class="edge">
<title>CardHeroesComponent&#45;&gt;CardHeroesModule</title>
<path fill="none" stroke="#000000" d="M619,-122.2228C619,-122.2228 619,-143.7269 619,-143.7269"/>
<polygon fill="#000000" stroke="#000000" points="615.5001,-143.7269 619,-153.7269 622.5001,-143.727 615.5001,-143.7269"/>
</g>
<!-- CardHeroesComponent  -->
<g id="node7" class="node">
<title>CardHeroesComponent </title>
<polygon fill="#fb8072" stroke="#000000" points="693.6855,-266 542.3145,-266 542.3145,-230 693.6855,-230 693.6855,-266"/>
<text text-anchor="middle" x="618" y="-243.8" font-family="Times,serif" font-size="14.00" fill="#000000">CardHeroesComponent </text>
</g>
<!-- CardHeroesModule&#45;&gt;CardHeroesComponent  -->
<g id="edge5" class="edge">
<title>CardHeroesModule&#45;&gt;CardHeroesComponent </title>
<path fill="none" stroke="#000000" stroke-dasharray="5,2" d="M597.9329,-190.0109C597.9329,-190.0109 597.9329,-219.855 597.9329,-219.855"/>
<polygon fill="#000000" stroke="#000000" points="594.433,-219.8549 597.9329,-229.855 601.433,-219.855 594.433,-219.8549"/>
</g>
<!-- SearchHeroesModule -->
<g id="node15" class="node">
<title>SearchHeroesModule</title>
<polygon fill="#8dd3c7" stroke="#000000" points="1151.7781,-266 1148.7781,-270 1127.7781,-270 1124.7781,-266 1014.2219,-266 1014.2219,-230 1151.7781,-230 1151.7781,-266"/>
<text text-anchor="middle" x="1083" y="-243.8" font-family="Times,serif" font-size="14.00" fill="#000000">SearchHeroesModule</text>
</g>
<!-- CardHeroesModule&#45;&gt;SearchHeroesModule -->
<g id="edge31" class="edge">
<title>CardHeroesModule&#45;&gt;SearchHeroesModule</title>
<path fill="none" stroke="#000000" d="M640.0671,-190.1467C640.0671,-203.7395 640.0671,-220 640.0671,-220 640.0671,-220 1041.8167,-220 1041.8167,-220 1041.8167,-220 1041.8167,-220.9793 1041.8167,-220.9793"/>
<polygon fill="#000000" stroke="#000000" points="1038.3168,-219.793 1041.8167,-229.793 1045.3168,-219.7931 1038.3168,-219.793"/>
</g>
<!-- FinishedGameComponent -->
<g id="node8" class="node">
<title>FinishedGameComponent</title>
<polygon fill="#ffffb3" stroke="#000000" points="2477.4818,-190 2314.5182,-190 2314.5182,-154 2477.4818,-154 2477.4818,-190"/>
<text text-anchor="middle" x="2396" y="-167.8" font-family="Times,serif" font-size="14.00" fill="#000000">FinishedGameComponent</text>
</g>
<!-- FinishedGameModule -->
<g id="node9" class="node">
<title>FinishedGameModule</title>
<polygon fill="#8dd3c7" stroke="#000000" points="2466.6993,-266 2463.6993,-270 2442.6993,-270 2439.6993,-266 2325.3007,-266 2325.3007,-230 2466.6993,-230 2466.6993,-266"/>
<text text-anchor="middle" x="2396" y="-243.8" font-family="Times,serif" font-size="14.00" fill="#000000">FinishedGameModule</text>
</g>
<!-- FinishedGameComponent&#45;&gt;FinishedGameModule -->
<g id="edge6" class="edge">
<title>FinishedGameComponent&#45;&gt;FinishedGameModule</title>
<path fill="none" stroke="#000000" d="M2396,-190.0109C2396,-190.0109 2396,-219.855 2396,-219.855"/>
<polygon fill="#000000" stroke="#000000" points="2392.5001,-219.8549 2396,-229.855 2399.5001,-219.855 2392.5001,-219.8549"/>
</g>
<!-- FinishedGameComponent  -->
<g id="node10" class="node">
<title>FinishedGameComponent </title>
<polygon fill="#fb8072" stroke="#000000" points="2480.4825,-342 2313.5175,-342 2313.5175,-306 2480.4825,-306 2480.4825,-342"/>
<text text-anchor="middle" x="2397" y="-319.8" font-family="Times,serif" font-size="14.00" fill="#000000">FinishedGameComponent </text>
</g>
<!-- FinishedGameModule&#45;&gt;FinishedGameComponent  -->
<g id="edge7" class="edge">
<title>FinishedGameModule&#45;&gt;FinishedGameComponent </title>
<path fill="none" stroke="#000000" stroke-dasharray="5,2" d="M2419.5332,-266.0109C2419.5332,-266.0109 2419.5332,-295.855 2419.5332,-295.855"/>
<polygon fill="#000000" stroke="#000000" points="2416.0333,-295.8549 2419.5332,-305.855 2423.0333,-295.855 2416.0333,-295.8549"/>
</g>
<!-- GameModule -->
<g id="node12" class="node">
<title>GameModule</title>
<polygon fill="#8dd3c7" stroke="#000000" points="1377.4762,-342 1374.4762,-346 1353.4762,-346 1350.4762,-342 1284.5238,-342 1284.5238,-306 1377.4762,-306 1377.4762,-342"/>
<text text-anchor="middle" x="1331" y="-319.8" font-family="Times,serif" font-size="14.00" fill="#000000">GameModule</text>
</g>
<!-- FinishedGameModule&#45;&gt;GameModule -->
<g id="edge9" class="edge">
<title>FinishedGameModule&#45;&gt;GameModule</title>
<path fill="none" stroke="#000000" d="M2372.4668,-266.0579C2372.4668,-270.4945 2372.4668,-274 2372.4668,-274 2372.4668,-274 1362.1674,-274 1362.1674,-274 1362.1674,-274 1362.1674,-295.9489 1362.1674,-295.9489"/>
<polygon fill="#000000" stroke="#000000" points="1358.6675,-295.9488 1362.1674,-305.9489 1365.6675,-295.9489 1358.6675,-295.9488"/>
</g>
<!-- GameComponent -->
<g id="node11" class="node">
<title>GameComponent</title>
<polygon fill="#ffffb3" stroke="#000000" points="1652.2591,-266 1537.7409,-266 1537.7409,-230 1652.2591,-230 1652.2591,-266"/>
<text text-anchor="middle" x="1595" y="-243.8" font-family="Times,serif" font-size="14.00" fill="#000000">GameComponent</text>
</g>
<!-- GameComponent&#45;&gt;GameModule -->
<g id="edge8" class="edge">
<title>GameComponent&#45;&gt;GameModule</title>
<path fill="none" stroke="#000000" d="M1595,-266.0267C1595,-286.7672 1595,-318 1595,-318 1595,-318 1387.5902,-318 1387.5902,-318"/>
<polygon fill="#000000" stroke="#000000" points="1387.5902,-314.5001 1377.5902,-318 1387.5902,-321.5001 1387.5902,-314.5001"/>
</g>
<!-- GameComponent  -->
<g id="node17" class="node">
<title>GameComponent </title>
<polygon fill="#fb8072" stroke="#000000" points="1390.2591,-410 1271.7409,-410 1271.7409,-374 1390.2591,-374 1390.2591,-410"/>
<text text-anchor="middle" x="1331" y="-387.8" font-family="Times,serif" font-size="14.00" fill="#000000">GameComponent </text>
</g>
<!-- GameModule&#45;&gt;GameComponent  -->
<g id="edge14" class="edge">
<title>GameModule&#45;&gt;GameComponent </title>
<path fill="none" stroke="#000000" stroke-dasharray="5,2" d="M1331,-342.2228C1331,-342.2228 1331,-363.7269 1331,-363.7269"/>
<polygon fill="#000000" stroke="#000000" points="1327.5001,-363.7269 1331,-373.7269 1334.5001,-363.727 1327.5001,-363.7269"/>
</g>
<!-- HomeModule -->
<g id="node24" class="node">
<title>HomeModule</title>
<polygon fill="#8dd3c7" stroke="#000000" points="1881.7619,-410 1878.7619,-414 1857.7619,-414 1854.7619,-410 1788.2381,-410 1788.2381,-374 1881.7619,-374 1881.7619,-410"/>
<text text-anchor="middle" x="1835" y="-387.8" font-family="Times,serif" font-size="14.00" fill="#000000">HomeModule</text>
</g>
<!-- GameModule&#45;&gt;HomeModule -->
<g id="edge20" class="edge">
<title>GameModule&#45;&gt;HomeModule</title>
<path fill="none" stroke="#000000" d="M1377.7187,-330C1435.4217,-330 1526.0473,-330 1526.0473,-330 1526.0473,-330 1526.0473,-392 1526.0473,-392 1526.0473,-392 1778.0767,-392 1778.0767,-392"/>
<polygon fill="#000000" stroke="#000000" points="1778.0768,-395.5001 1788.0767,-392 1778.0767,-388.5001 1778.0768,-395.5001"/>
</g>
<!-- GameRoutingModule -->
<g id="node13" class="node">
<title>GameRoutingModule</title>
<polygon fill="#8dd3c7" stroke="#000000" points="1308.094,-266 1305.094,-270 1284.094,-270 1281.094,-266 1169.906,-266 1169.906,-230 1308.094,-230 1308.094,-266"/>
<text text-anchor="middle" x="1239" y="-243.8" font-family="Times,serif" font-size="14.00" fill="#000000">GameRoutingModule</text>
</g>
<!-- GameRoutingModule&#45;&gt;GameModule -->
<g id="edge10" class="edge">
<title>GameRoutingModule&#45;&gt;GameModule</title>
<path fill="none" stroke="#000000" d="M1296.2795,-266.0109C1296.2795,-266.0109 1296.2795,-295.855 1296.2795,-295.855"/>
<polygon fill="#000000" stroke="#000000" points="1292.7795,-295.8549 1296.2795,-305.855 1299.7795,-295.855 1292.7795,-295.8549"/>
</g>
<!-- ScoreboardModule -->
<g id="node14" class="node">
<title>ScoreboardModule</title>
<polygon fill="#8dd3c7" stroke="#000000" points="857.7978,-266 854.7978,-270 833.7978,-270 830.7978,-266 734.2022,-266 734.2022,-230 857.7978,-230 857.7978,-266"/>
<text text-anchor="middle" x="796" y="-243.8" font-family="Times,serif" font-size="14.00" fill="#000000">ScoreboardModule</text>
</g>
<!-- ScoreboardModule&#45;&gt;GameModule -->
<g id="edge11" class="edge">
<title>ScoreboardModule&#45;&gt;GameModule</title>
<path fill="none" stroke="#000000" d="M796,-266.0265C796,-291.5093 796,-335 796,-335 796,-335 1274.4582,-335 1274.4582,-335"/>
<polygon fill="#000000" stroke="#000000" points="1274.4582,-338.5001 1284.4582,-335 1274.4581,-331.5001 1274.4582,-338.5001"/>
</g>
<!-- ScoreboardComponent  -->
<g id="node28" class="node">
<title>ScoreboardComponent </title>
<polygon fill="#fb8072" stroke="#000000" points="172.0806,-342 23.9194,-342 23.9194,-306 172.0806,-306 172.0806,-342"/>
<text text-anchor="middle" x="98" y="-319.8" font-family="Times,serif" font-size="14.00" fill="#000000">ScoreboardComponent </text>
</g>
<!-- ScoreboardModule&#45;&gt;ScoreboardComponent  -->
<g id="edge25" class="edge">
<title>ScoreboardModule&#45;&gt;ScoreboardComponent </title>
<path fill="none" stroke="#000000" stroke-dasharray="5,2" d="M765.1757,-266.1944C765.1757,-274.2782 765.1757,-282 765.1757,-282 765.1757,-282 152.9515,-282 152.9515,-282 152.9515,-282 152.9515,-295.9445 152.9515,-295.9445"/>
<polygon fill="#000000" stroke="#000000" points="149.4515,-295.9444 152.9515,-305.9445 156.4515,-295.9445 149.4515,-295.9444"/>
</g>
<!-- SearchHeroesModule&#45;&gt;GameModule -->
<g id="edge12" class="edge">
<title>SearchHeroesModule&#45;&gt;GameModule</title>
<path fill="none" stroke="#000000" d="M1083,-266.0449C1083,-287.6623 1083,-321 1083,-321 1083,-321 1274.3531,-321 1274.3531,-321"/>
<polygon fill="#000000" stroke="#000000" points="1274.3531,-324.5001 1284.3531,-321 1274.3531,-317.5001 1274.3531,-324.5001"/>
</g>
<!-- SearchHeroesComponent  -->
<g id="node35" class="node">
<title>SearchHeroesComponent </title>
<polygon fill="#fb8072" stroke="#000000" points="979.061,-190 816.939,-190 816.939,-154 979.061,-154 979.061,-190"/>
<text text-anchor="middle" x="898" y="-167.8" font-family="Times,serif" font-size="14.00" fill="#000000">SearchHeroesComponent </text>
</g>
<!-- SearchHeroesModule&#45;&gt;SearchHeroesComponent  -->
<g id="edge33" class="edge">
<title>SearchHeroesModule&#45;&gt;SearchHeroesComponent </title>
<path fill="none" stroke="#000000" stroke-dasharray="5,2" d="M1069.2722,-229.8903C1069.2722,-220.103 1069.2722,-210 1069.2722,-210 1069.2722,-210 927.401,-210 927.401,-210 927.401,-210 927.401,-200.1097 927.401,-200.1097"/>
<polygon fill="#000000" stroke="#000000" points="930.901,-200.1096 927.401,-190.1097 923.901,-200.1097 930.901,-200.1096"/>
</g>
<!-- TicTacToeModule -->
<g id="node16" class="node">
<title>TicTacToeModule</title>
<polygon fill="#8dd3c7" stroke="#000000" points="996.4566,-266 993.4566,-270 972.4566,-270 969.4566,-266 875.5434,-266 875.5434,-230 996.4566,-230 996.4566,-266"/>
<text text-anchor="middle" x="936" y="-243.8" font-family="Times,serif" font-size="14.00" fill="#000000">TicTacToeModule</text>
</g>
<!-- TicTacToeModule&#45;&gt;GameModule -->
<g id="edge13" class="edge">
<title>TicTacToeModule&#45;&gt;GameModule</title>
<path fill="none" stroke="#000000" d="M966.2392,-266.1532C966.2392,-289.7566 966.2392,-328 966.2392,-328 966.2392,-328 1274.4323,-328 1274.4323,-328"/>
<polygon fill="#000000" stroke="#000000" points="1274.4323,-331.5001 1284.4323,-328 1274.4323,-324.5001 1274.4323,-331.5001"/>
</g>
<!-- TicTacToeComponent  -->
<g id="node37" class="node">
<title>TicTacToeComponent </title>
<polygon fill="#fb8072" stroke="#000000" points="528.2394,-342 381.7606,-342 381.7606,-306 528.2394,-306 528.2394,-342"/>
<text text-anchor="middle" x="455" y="-319.8" font-family="Times,serif" font-size="14.00" fill="#000000">TicTacToeComponent </text>
</g>
<!-- TicTacToeModule&#45;&gt;TicTacToeComponent  -->
<g id="edge35" class="edge">
<title>TicTacToeModule&#45;&gt;TicTacToeComponent </title>
<path fill="none" stroke="#000000" stroke-dasharray="5,2" d="M905.7609,-266.0511C905.7609,-280.373 905.7609,-298 905.7609,-298 905.7609,-298 459.9196,-298 459.9196,-298 459.9196,-298 459.9196,-298.7942 459.9196,-298.7942"/>
<polygon fill="#000000" stroke="#000000" points="456.4197,-295.9421 459.9196,-305.9421 463.4197,-295.9422 456.4197,-295.9421"/>
</g>
<!-- LocalStorageService -->
<g id="node18" class="node">
<title>LocalStorageService</title>
<ellipse fill="#fdb462" stroke="#000000" cx="1423" cy="-248" rx="91.4481" ry="18"/>
<text text-anchor="middle" x="1423" y="-243.8" font-family="Times,serif" font-size="14.00" fill="#000000">LocalStorageService</text>
</g>
<!-- LocalStorageService&#45;&gt;GameModule -->
<g id="edge15" class="edge">
<title>LocalStorageService&#45;&gt;GameModule</title>
<path fill="none" stroke="#000000" d="M1346.8467,-258.2497C1346.8467,-258.2497 1346.8467,-295.7689 1346.8467,-295.7689"/>
<polygon fill="#000000" stroke="#000000" points="1343.3468,-295.7689 1346.8467,-305.7689 1350.3468,-295.769 1343.3468,-295.7689"/>
</g>
<!-- HelpComponent -->
<g id="node19" class="node">
<title>HelpComponent</title>
<polygon fill="#ffffb3" stroke="#000000" points="2274.0452,-266 2165.9548,-266 2165.9548,-230 2274.0452,-230 2274.0452,-266"/>
<text text-anchor="middle" x="2220" y="-243.8" font-family="Times,serif" font-size="14.00" fill="#000000">HelpComponent</text>
</g>
<!-- HelpModule -->
<g id="node20" class="node">
<title>HelpModule</title>
<polygon fill="#8dd3c7" stroke="#000000" points="2119.2619,-342 2116.2619,-346 2095.2619,-346 2092.2619,-342 2032.7381,-342 2032.7381,-306 2119.2619,-306 2119.2619,-342"/>
<text text-anchor="middle" x="2076" y="-319.8" font-family="Times,serif" font-size="14.00" fill="#000000">HelpModule</text>
</g>
<!-- HelpComponent&#45;&gt;HelpModule -->
<g id="edge16" class="edge">
<title>HelpComponent&#45;&gt;HelpModule</title>
<path fill="none" stroke="#000000" d="M2220,-266.0109C2220,-288.4852 2220,-324 2220,-324 2220,-324 2129.5955,-324 2129.5955,-324"/>
<polygon fill="#000000" stroke="#000000" points="2129.5956,-320.5001 2119.5955,-324 2129.5955,-327.5001 2129.5956,-320.5001"/>
</g>
<!-- HelpComponent  -->
<g id="node22" class="node">
<title>HelpComponent </title>
<polygon fill="#fb8072" stroke="#000000" points="2132.0442,-410 2019.9558,-410 2019.9558,-374 2132.0442,-374 2132.0442,-410"/>
<text text-anchor="middle" x="2076" y="-387.8" font-family="Times,serif" font-size="14.00" fill="#000000">HelpComponent </text>
</g>
<!-- HelpModule&#45;&gt;HelpComponent  -->
<g id="edge18" class="edge">
<title>HelpModule&#45;&gt;HelpComponent </title>
<path fill="none" stroke="#000000" stroke-dasharray="5,2" d="M2076,-342.2228C2076,-342.2228 2076,-363.7269 2076,-363.7269"/>
<polygon fill="#000000" stroke="#000000" points="2072.5001,-363.7269 2076,-373.7269 2079.5001,-363.727 2072.5001,-363.7269"/>
</g>
<!-- HelpModule&#45;&gt;HomeModule -->
<g id="edge21" class="edge">
<title>HelpModule&#45;&gt;HomeModule</title>
<path fill="none" stroke="#000000" d="M2032.6573,-324C2022.7245,-324 2015.0191,-324 2015.0191,-324 2015.0191,-324 2015.0191,-392 2015.0191,-392 2015.0191,-392 1891.828,-392 1891.828,-392"/>
<polygon fill="#000000" stroke="#000000" points="1891.828,-388.5001 1881.828,-392 1891.8279,-395.5001 1891.828,-388.5001"/>
</g>
<!-- HelpRoutingModule -->
<g id="node21" class="node">
<title>HelpRoutingModule</title>
<polygon fill="#8dd3c7" stroke="#000000" points="2141.8795,-266 2138.8795,-270 2117.8795,-270 2114.8795,-266 2010.1205,-266 2010.1205,-230 2141.8795,-230 2141.8795,-266"/>
<text text-anchor="middle" x="2076" y="-243.8" font-family="Times,serif" font-size="14.00" fill="#000000">HelpRoutingModule</text>
</g>
<!-- HelpRoutingModule&#45;&gt;HelpModule -->
<g id="edge17" class="edge">
<title>HelpRoutingModule&#45;&gt;HelpModule</title>
<path fill="none" stroke="#000000" d="M2076,-266.0109C2076,-266.0109 2076,-295.855 2076,-295.855"/>
<polygon fill="#000000" stroke="#000000" points="2072.5001,-295.8549 2076,-305.855 2079.5001,-295.855 2072.5001,-295.8549"/>
</g>
<!-- HomeComponent -->
<g id="node23" class="node">
<title>HomeComponent</title>
<polygon fill="#ffffb3" stroke="#000000" points="1969.5451,-342 1854.4549,-342 1854.4549,-306 1969.5451,-306 1969.5451,-342"/>
<text text-anchor="middle" x="1912" y="-319.8" font-family="Times,serif" font-size="14.00" fill="#000000">HomeComponent</text>
</g>
<!-- HomeComponent&#45;&gt;HomeModule -->
<g id="edge19" class="edge">
<title>HomeComponent&#45;&gt;HomeModule</title>
<path fill="none" stroke="#000000" d="M1868.0544,-342.2228C1868.0544,-342.2228 1868.0544,-363.7269 1868.0544,-363.7269"/>
<polygon fill="#000000" stroke="#000000" points="1864.5544,-363.7269 1868.0544,-373.7269 1871.5544,-363.727 1864.5544,-363.7269"/>
</g>
<!-- HomeComponent  -->
<g id="node26" class="node">
<title>HomeComponent </title>
<polygon fill="#fb8072" stroke="#000000" points="1894.5442,-478 1775.4558,-478 1775.4558,-442 1894.5442,-442 1894.5442,-478"/>
<text text-anchor="middle" x="1835" y="-455.8" font-family="Times,serif" font-size="14.00" fill="#000000">HomeComponent </text>
</g>
<!-- HomeModule&#45;&gt;HomeComponent  -->
<g id="edge23" class="edge">
<title>HomeModule&#45;&gt;HomeComponent </title>
<path fill="none" stroke="#000000" stroke-dasharray="5,2" d="M1835,-410.2228C1835,-410.2228 1835,-431.7269 1835,-431.7269"/>
<polygon fill="#000000" stroke="#000000" points="1831.5001,-431.7269 1835,-441.7269 1838.5001,-431.727 1831.5001,-431.7269"/>
</g>
<!-- HomeRoutingModule -->
<g id="node25" class="node">
<title>HomeRoutingModule</title>
<polygon fill="#8dd3c7" stroke="#000000" points="1830.3795,-342 1827.3795,-346 1806.3795,-346 1803.3795,-342 1691.6205,-342 1691.6205,-306 1830.3795,-306 1830.3795,-342"/>
<text text-anchor="middle" x="1761" y="-319.8" font-family="Times,serif" font-size="14.00" fill="#000000">HomeRoutingModule</text>
</g>
<!-- HomeRoutingModule&#45;&gt;HomeModule -->
<g id="edge22" class="edge">
<title>HomeRoutingModule&#45;&gt;HomeModule</title>
<path fill="none" stroke="#000000" d="M1809.2795,-342.2228C1809.2795,-342.2228 1809.2795,-363.7269 1809.2795,-363.7269"/>
<polygon fill="#000000" stroke="#000000" points="1805.7795,-363.7269 1809.2795,-373.7269 1812.7795,-363.727 1805.7795,-363.7269"/>
</g>
<!-- ScoreboardComponent -->
<g id="node27" class="node">
<title>ScoreboardComponent</title>
<polygon fill="#ffffb3" stroke="#000000" points="341.58,-342 196.42,-342 196.42,-306 341.58,-306 341.58,-342"/>
<text text-anchor="middle" x="269" y="-319.8" font-family="Times,serif" font-size="14.00" fill="#000000">ScoreboardComponent</text>
</g>
<!-- ScoreboardComponent&#45;&gt;ScoreboardModule -->
<g id="edge24" class="edge">
<title>ScoreboardComponent&#45;&gt;ScoreboardModule</title>
<path fill="none" stroke="#000000" d="M332.0048,-305.8056C332.0048,-297.7218 332.0048,-290 332.0048,-290 332.0048,-290 826.8244,-290 826.8244,-290 826.8244,-290 826.8244,-276.0555 826.8244,-276.0555"/>
<polygon fill="#000000" stroke="#000000" points="830.3244,-276.0555 826.8244,-266.0555 823.3244,-276.0556 830.3244,-276.0555"/>
</g>
<!-- SearchBarComponent -->
<g id="node29" class="node">
<title>SearchBarComponent</title>
<polygon fill="#ffffb3" stroke="#000000" points="2817.6317,-122 2678.3683,-122 2678.3683,-86 2817.6317,-86 2817.6317,-122"/>
<text text-anchor="middle" x="2748" y="-99.8" font-family="Times,serif" font-size="14.00" fill="#000000">SearchBarComponent</text>
</g>
<!-- SearchBarModule -->
<g id="node30" class="node">
<title>SearchBarModule</title>
<polygon fill="#8dd3c7" stroke="#000000" points="2647.8487,-190 2644.8487,-194 2623.8487,-194 2620.8487,-190 2530.1513,-190 2530.1513,-154 2647.8487,-154 2647.8487,-190"/>
<text text-anchor="middle" x="2589" y="-167.8" font-family="Times,serif" font-size="14.00" fill="#000000">SearchBarModule</text>
</g>
<!-- SearchBarComponent&#45;&gt;SearchBarModule -->
<g id="edge26" class="edge">
<title>SearchBarComponent&#45;&gt;SearchBarModule</title>
<path fill="none" stroke="#000000" d="M2748,-122.2228C2748,-142.3652 2748,-172 2748,-172 2748,-172 2658.2057,-172 2658.2057,-172"/>
<polygon fill="#000000" stroke="#000000" points="2658.2058,-168.5001 2648.2057,-172 2658.2057,-175.5001 2658.2058,-168.5001"/>
</g>
<!-- SearchBarModule&#45;&gt;SearchHeroesModule -->
<g id="edge32" class="edge">
<title>SearchBarModule&#45;&gt;SearchHeroesModule</title>
<path fill="none" stroke="#000000" d="M2569.3586,-190.207C2569.3586,-195.5549 2569.3586,-200 2569.3586,-200 2569.3586,-200 1124.1833,-200 1124.1833,-200 1124.1833,-200 1124.1833,-219.8533 1124.1833,-219.8533"/>
<polygon fill="#000000" stroke="#000000" points="1120.6834,-219.8532 1124.1833,-229.8533 1127.6834,-219.8533 1120.6834,-219.8532"/>
</g>
<!-- SearchBarComponent  -->
<g id="node31" class="node">
<title>SearchBarComponent </title>
<polygon fill="#fb8072" stroke="#000000" points="2663.6313,-266 2520.3687,-266 2520.3687,-230 2663.6313,-230 2663.6313,-266"/>
<text text-anchor="middle" x="2592" y="-243.8" font-family="Times,serif" font-size="14.00" fill="#000000">SearchBarComponent </text>
</g>
<!-- SearchBarModule&#45;&gt;SearchBarComponent  -->
<g id="edge27" class="edge">
<title>SearchBarModule&#45;&gt;SearchBarComponent </title>
<path fill="none" stroke="#000000" stroke-dasharray="5,2" d="M2608.6414,-190.0109C2608.6414,-190.0109 2608.6414,-219.855 2608.6414,-219.855"/>
<polygon fill="#000000" stroke="#000000" points="2605.1415,-219.8549 2608.6414,-229.855 2612.1415,-219.855 2605.1415,-219.8549"/>
</g>
<!-- HeroesService -->
<g id="node32" class="node">
<title>HeroesService</title>
<ellipse fill="#fdb462" stroke="#000000" cx="2587" cy="-104" rx="67.1715" ry="18"/>
<text text-anchor="middle" x="2587" y="-99.8" font-family="Times,serif" font-size="14.00" fill="#000000">HeroesService</text>
</g>
<!-- HeroesService&#45;&gt;SearchBarModule -->
<g id="edge28" class="edge">
<title>HeroesService&#45;&gt;SearchBarModule</title>
<path fill="none" stroke="#000000" d="M2589,-122.2228C2589,-122.2228 2589,-143.7269 2589,-143.7269"/>
<polygon fill="#000000" stroke="#000000" points="2585.5001,-143.7269 2589,-153.7269 2592.5001,-143.727 2585.5001,-143.7269"/>
</g>
<!-- LoaderComponent -->
<g id="node33" class="node">
<title>LoaderComponent</title>
<polygon fill="#ffffb3" stroke="#000000" points="1301.4748,-190 1180.5252,-190 1180.5252,-154 1301.4748,-154 1301.4748,-190"/>
<text text-anchor="middle" x="1241" y="-167.8" font-family="Times,serif" font-size="14.00" fill="#000000">LoaderComponent</text>
</g>
<!-- LoaderComponent&#45;&gt;SearchHeroesModule -->
<g id="edge29" class="edge">
<title>LoaderComponent&#45;&gt;SearchHeroesModule</title>
<path fill="none" stroke="#000000" d="M1180.3031,-172C1171.992,-172 1166.2416,-172 1166.2416,-172 1166.2416,-172 1166.2416,-248 1166.2416,-248 1166.2416,-248 1161.742,-248 1161.742,-248"/>
<polygon fill="#000000" stroke="#000000" points="1161.7421,-244.5001 1151.742,-248 1161.742,-251.5001 1161.7421,-244.5001"/>
</g>
<!-- SearchHeroesComponent -->
<g id="node34" class="node">
<title>SearchHeroesComponent</title>
<polygon fill="#ffffb3" stroke="#000000" points="1162.5604,-190 1003.4396,-190 1003.4396,-154 1162.5604,-154 1162.5604,-190"/>
<text text-anchor="middle" x="1083" y="-167.8" font-family="Times,serif" font-size="14.00" fill="#000000">SearchHeroesComponent</text>
</g>
<!-- SearchHeroesComponent&#45;&gt;SearchHeroesModule -->
<g id="edge30" class="edge">
<title>SearchHeroesComponent&#45;&gt;SearchHeroesModule</title>
<path fill="none" stroke="#000000" d="M1096.7278,-190.0109C1096.7278,-190.0109 1096.7278,-219.855 1096.7278,-219.855"/>
<polygon fill="#000000" stroke="#000000" points="1093.2279,-219.8549 1096.7278,-229.855 1100.2279,-219.855 1093.2279,-219.8549"/>
</g>
<!-- TicTacToeComponent -->
<g id="node36" class="node">
<title>TicTacToeComponent</title>
<polygon fill="#ffffb3" stroke="#000000" points="694.2394,-342 551.7606,-342 551.7606,-306 694.2394,-306 694.2394,-342"/>
<text text-anchor="middle" x="623" y="-319.8" font-family="Times,serif" font-size="14.00" fill="#000000">TicTacToeComponent</text>
</g>
<!-- TicTacToeComponent&#45;&gt;TicTacToeModule -->
<g id="edge34" class="edge">
<title>TicTacToeComponent&#45;&gt;TicTacToeModule</title>
<path fill="none" stroke="#000000" d="M694.4162,-314C786.795,-314 936,-314 936,-314 936,-314 936,-276.0348 936,-276.0348"/>
<polygon fill="#000000" stroke="#000000" points="939.5001,-276.0348 936,-266.0348 932.5001,-276.0348 939.5001,-276.0348"/>
</g>
</g>
</svg>
